# xmcd
#
# Track frame offsets: 
#        150
#        10630
#        22500
#        33142
#        45567
#        54202
#        65345
#        74440
#        85567
#        97412
#
# Disc length: 1430 seconds
#
# Revision: 1
# Processed by: cddbd v1.5.2PL0 Copyright (c) Steve Scherf et al.
# Submitted via: ExactAudioCopy v0.95b4
#
DISCID=6a05940a
DTITLE=Various Artist - The Best Of Country - Disc 1
DYEAR=2004
DGENRE=Country
TTITLE0=Jim Reeves - He'll Have To Go
TTITLE1=Hank Snow - Miller's Cave
TTITLE2=Hank Locklin - Please Help Me, I'm Falling
TTITLE3=Skeeter Davis - (I Can't Help You) I'm Falling Too
TTITLE4=Don Gibson - Sweet Dreams
TTITLE5=Floyd Cramer - Last Date
TTITLE6=Roger Miller - You Don't Want My Love
TTITLE7=Carl Belew - Hello Out There
TTITLE8=The Browns - Scarlet Ribbons (For Her Hair)
TTITLE9=Chet Atkins and His Gallopin' Guitar - Teensville
EXTD=
EXTT0=
EXTT1=
EXTT2=
EXTT3=
EXTT4=
EXTT5=
EXTT6=
EXTT7=
EXTT8=
EXTT9=
PLAYORDER=
